<?xml version="1.0" encoding="utf-8"?>
<!-- Generator: Adobe Illustrator 24.1.2, SVG Export Plug-In . SVG Version: 6.00 Build 0)  -->
<svg version="1.1" id="Capa_1" xmlns="http://www.w3.org/2000/svg" xmlns:xlink="http://www.w3.org/1999/xlink" x="0px" y="0px"
	 viewBox="0 0 878.28 876" style="enable-background:new 0 0 878.28 876;" xml:space="preserve">
<style type="text/css">
	.st0{fill:#020203;}
	.st1{fill:#C1C0BF;}
	.st2{fill:#5C5957;}
	.st3{fill:#B5B0A9;}
	.st4{fill:#92908D;}
	.st5{fill:#90877E;}
	.st6{fill:#64605C;}
	.st7{fill:#6C6864;}
	.st8{clip-path:url(#SVGID_2_);}
	.st9{fill:#7DA53C;}
	.st10{fill:#3D8333;}
	.st11{fill:#6F9D2E;}
	.st12{opacity:0.5;fill:none;stroke:#78B364;stroke-linecap:round;stroke-miterlimit:10;}
	.st13{fill:none;stroke:#6F9D2E;stroke-linecap:square;stroke-linejoin:bevel;stroke-miterlimit:10;}
</style>
<path class="st0" d="M216.52,628.75c-0.76,1.49-1.65,2.8-2.69,3.93c-0.85,0.87-1.72,1.94-2.62,3.21l-2.26,3.41
	c-1.41,2.18-3.61,4.85-6.58,7.99l-1.77,1.64l-1.77,1.64c-2.12,2.01-4.01,3.39-5.66,4.13l-0.92,0.59l-0.92,0.59
	c-0.8,0.48-1.37,1.05-1.7,1.7l-0.42,0.79l-0.57,0.72c-1.04,1.66-2.64,2.25-4.81,1.77c-0.9-0.22-2.03-0.59-3.4-1.11
	c-2.55-0.96-5.52-2.38-8.91-4.26c-2.55-1.44-4.13-3.67-4.74-6.68c-0.38-1.7-0.61-3.6-0.71-5.7c-0.14-3.67-0.35-6.75-0.64-9.24
	c-0.19-1.53-0.31-3.52-0.35-5.96l-0.14-5.9l-0.5-7.01l-0.35-6.94l-0.57-6.81c-0.19-2.79-0.28-5.07-0.28-6.81l-0.14-4.52l-0.35-4.52
	c-0.38-5.55-0.57-12.51-0.57-20.9v-13.23c0.05-1.53,0.83-2.07,2.33-1.64l0.99,0.26l0.92,0.13c0.75-0.04,1.67,0.02,2.76,0.2
	l2.76,0.39c2.26,0.26,3.94,0.92,5.02,1.97c0.33,0.31,0.85,0.5,1.56,0.59l0.85,0.13l0.64,0.33l0.57,0.46l0.5,0.52
	c0.38,0.39,0.78,0.66,1.2,0.79c3.58,1,5.59,3.49,6.01,7.47l0.57,4.91l0.49,4.85l0.28,4.39l0.42,4.32l0.21,3.41l0.07,3.34l0.07,2.55
	l0.21,2.62l0.14,2.29l0.14,12.64l0.07,2.75l0.21,2.69l0.07,1.77v1.83l0.5,8.12c0.19,3.28,0.26,5.98,0.21,8.12
	c-0.05,1.88,0.94,3.54,2.97,4.98c0.66,0.48,1.34,0.44,2.05-0.13c0.61-0.48,1.23-1.24,1.84-2.29l7.22-12.51l4.88-8.45
	c0.8-1.4,1.67-3.06,2.62-4.98l2.41-5.11l1.2-2.62l1.2-2.62c0.99-2.18,1.51-4.26,1.56-6.22l0.21-5.7l0.21-5.63
	c-0.05-3.23,0.12-7.01,0.5-11.33c0.14-1.7,0.54-3.82,1.2-6.35c0.38-1.35,1.49-2.71,3.33-4.06c2.5-1.88,5.49-3.43,8.98-4.65
	c2.36-0.83,4.65-0.5,6.86,0.98l0.42,0.33l0.42,0.33c2.12,1,3.06,2.66,2.83,4.98l-0.21,4.72v4.78l-0.07,1.05v0.98
	c0.24,1.49,0.38,3.25,0.42,5.31l0.07,5.31l0.21,5.18l0.35,6.68l0.21,2.03l0.07,0.66l0.07,0.66l-0.07,3.21l0.14,3.21
	c0.14,2.84,0.14,5,0,6.49c-0.24,2.71-0.38,6.53-0.42,11.46l-0.07,5.77l-0.28,5.7l-0.42,5.7c-0.19,2.1-0.49,3.95-0.92,5.57
	l-0.14,1.31c0.05,1.53-0.52,3.04-1.7,4.52c-0.71,0.87-1.46,2.25-2.26,4.13c-1.13,2.58-3.3,4.15-6.51,4.72
	c-1.7,0.31-3.92,0.44-6.65,0.39c-1.75-0.04-2.59-0.76-2.55-2.16c0.09-1.75-0.54-3.47-1.91-5.18c-0.33-0.44-0.54-0.92-0.64-1.44
	l-0.78-3.67c-0.33-1.44-0.52-2.66-0.57-3.67l-0.28-6.62l-0.35-6.55l-0.35-2.03l-0.21-1.05l-0.28-0.98
	c-0.24-0.87-0.31-1.68-0.21-2.42C217.77,626.79,217.08,627.66,216.52,628.75z"/>
<path class="st0" d="M293.65,659.54l0.08-2.16c-0.04-0.87,0.01-1.86,0.16-2.95c0.19-1.13,0.29-2.27,0.3-3.41
	c-0.13-3.1,0.27-7.64,1.2-13.62l0.88-6.81l0.89-7.79l0.89-7.73l0.44-2.55l0.44-2.55l0.89-7.99l0.96-8.05l0.59-4.32l0.66-4.39
	l0.58-4.06l0.66-4.06c0.49-3.23,0.76-5.94,0.82-8.12l0.22-1.57l0.29-1.57l1.1-8.25c0.15-1.22,0.72-1.98,1.71-2.28
	c1.37-0.47,2.53-1.41,3.48-2.8l0.43-0.52l0.43-0.46c0.52-0.48,0.99-0.54,1.42-0.19c0.47,0.31,1.18,0.64,2.12,0.99l1.13,0.4
	l0.99,0.53c0.89,0.57,1.98,0.88,3.25,0.93c3.11,0.06,5.42,1.69,6.91,4.88c1.91,4.07,4.01,9.96,6.28,17.65l1.39,4.46l1.25,4.46
	l0.7,1.9l0.7,1.84l1.33,3.81l1.33,3.87c1.12,3.15,1.93,5.73,2.44,7.74c0.46,1.62,1.16,3.28,2.1,4.99l0.98,2.3l0.84,2.3l3.5,8.21
	l0.42,0.79l0.21,0.79c0.09,1.31,0.46,2.75,1.11,4.33l0.84,1.97l0.98,2.04c0.84,1.66,1.73,3.63,2.66,5.91l2.31,5.97
	c0.75,1.88,1.63,3.92,2.66,6.11c0.61,1.31,1.02,2.71,1.25,4.2c0.09,0.61,0.09,1.27-0.01,1.97c-0.24,1.66-1.29,2.61-3.13,2.87
	c-0.8,0.13-1.41-0.09-1.84-0.66l-1.69-2.17l-1.69-2.17c-1.36-1.71-2.37-3.24-3.02-4.6l-2.73-5.25l-2.66-5.25
	c-1.96-4.03-3.55-7.62-4.76-10.77l-1.82-4.86l-1.82-4.86l-0.21-0.66l-0.28-0.72c-0.33-0.79-1.01-1.12-2.05-0.99
	c-3.82,0.46-6.89,0.56-9.2,0.28c-1.6-0.23-2.66-0.14-3.19,0.25c-0.52,0.39-0.9,1.33-1.14,2.81l-4.51,25.53l-0.72,3.14l-1.66,6.41
	c-0.87,3.93-2.13,7.02-3.79,9.28c-0.43,0.61-0.76,1.46-1,2.55c-0.29,1.4-1.26,2.66-2.92,3.79c-1.66,1.08-3.26,1.58-4.82,1.48
	l-3.4-0.15c-0.9,0.04-1.74-0.18-2.54-0.67l-0.99-0.73l-0.99-0.86c-0.94-0.83-1.36-2.04-1.26-3.61L293.65,659.54z M325.38,594.24
	l-0.88,6.22l-0.52,4.71c-0.24,1.79-0.54,3.36-0.87,4.71l-0.22,1.44c-0.1,0.74,0.25,1.11,1.06,1.12c0.61,0,1.23-0.06,1.84-0.19
	l6.66-1.34c1.42-0.3,1.94-1.15,1.57-2.55l-0.63-2.1l-1.88-5.32l-1.46-4.53l-1.53-4.59l-0.7-1.9l-0.84-1.97
	C326.34,589.79,325.81,591.89,325.38,594.24z"/>
<path class="st0" d="M440.32,630.78v12.25l-0.28,12.12c-0.14,3.06,0.16,4.96,0.92,5.7c0.71,0.79,2.64,1.16,5.8,1.11l7.92,0.13
	l7.92,0.26c6.46,0.17,11.72,0.09,15.78-0.26l0.85-0.13l0.85-0.13c0.61,0,0.97,0.22,1.06,0.66c0.09,0.39-0.02,0.9-0.35,1.51
	c-0.24,0.52-0.59,1.03-1.06,1.51c-0.57,0.57-1.41,0.85-2.55,0.85l-6.44,0.26l-6.44,0.46c-5.24,0.31-9.53,0.31-12.88,0
	c-4.01-0.39-8.18,0.28-12.52,2.03c-4.29,1.7-8.66,2.42-13.09,2.16l-1.77-0.07c-0.66,0.04-1.2,0.13-1.63,0.26
	c-2.36,0.87-4.06,0.74-5.09-0.39c-0.71-0.74-1.27-2.18-1.7-4.32c-2.17-11.62-3.49-25.35-3.96-41.21l-0.35-20.7l-0.21-20.7
	c-0.05-3.41,0-7.42,0.14-12.05l0.49-12.12c0.38-9.91,0.26-17.95-0.35-24.11c-0.1-1.35,0.35-2.18,1.34-2.49
	c4.81-1.62,10.52-0.44,17.12,3.54c3.54,2.18,5.87,5.24,7,9.17c0.38,1.31,0.71,3.1,0.99,5.37l0.28,2.69l0.42,2.75
	c2.45,13.23,3.56,27.71,3.33,43.43l-0.07,3.08l-0.07,1.24l-0.07,0.92C440.86,612.33,440.41,620.74,440.32,630.78z"/>
<path class="st0" d="M523.2,659.7l0.07-2.16c-0.05-0.87,0-1.86,0.14-2.95c0.19-1.13,0.28-2.27,0.28-3.41
	c-0.14-3.1,0.24-7.64,1.13-13.63l0.85-6.81l0.85-7.8l0.85-7.73l0.42-2.55l0.42-2.55l0.85-7.99l0.92-8.06l0.57-4.32l0.64-4.39
	l0.57-4.06l0.64-4.06c0.47-3.23,0.73-5.94,0.78-8.12l0.21-1.57l0.28-1.57l1.06-8.25c0.14-1.22,0.71-1.99,1.7-2.29
	c1.37-0.48,2.52-1.42,3.47-2.82l0.42-0.52l0.42-0.46c0.52-0.48,0.99-0.55,1.42-0.2c0.47,0.31,1.18,0.63,2.12,0.98l1.13,0.39
	l0.99,0.52c0.9,0.57,1.98,0.87,3.25,0.92c3.11,0.04,5.42,1.66,6.93,4.85c1.93,4.06,4.06,9.94,6.37,17.62l1.42,4.45l1.27,4.45
	l0.71,1.9l0.71,1.83l1.34,3.8l1.34,3.87c1.13,3.14,1.96,5.72,2.48,7.73c0.47,1.62,1.18,3.28,2.12,4.98l0.99,2.29l0.85,2.29
	l3.54,8.19l0.42,0.79l0.21,0.79c0.09,1.31,0.47,2.75,1.13,4.32l0.85,1.97l0.99,2.03c0.85,1.66,1.75,3.63,2.69,5.9l2.34,5.96
	c0.75,1.88,1.65,3.91,2.69,6.09c0.61,1.31,1.04,2.71,1.27,4.19c0.09,0.61,0.09,1.27,0,1.97c-0.24,1.66-1.27,2.62-3.11,2.88
	c-0.8,0.13-1.41-0.09-1.84-0.66l-1.7-2.16l-1.7-2.16c-1.37-1.7-2.38-3.23-3.04-4.59l-2.76-5.24l-2.69-5.24
	c-1.98-4.02-3.59-7.6-4.81-10.74l-1.84-4.85l-1.84-4.85l-0.21-0.66l-0.28-0.72c-0.33-0.79-1.01-1.11-2.05-0.98
	c-3.82,0.48-6.89,0.59-9.2,0.33c-1.6-0.22-2.67-0.13-3.18,0.26s-0.9,1.33-1.13,2.82l-4.39,25.55l-0.71,3.14l-1.63,6.42
	c-0.85,3.93-2.1,7.03-3.75,9.3c-0.42,0.61-0.76,1.46-0.99,2.55c-0.28,1.4-1.25,2.66-2.9,3.8c-1.65,1.09-3.25,1.59-4.81,1.51
	l-3.4-0.13c-0.9,0.04-1.74-0.18-2.55-0.66l-0.99-0.72l-0.99-0.85c-0.94-0.83-1.37-2.03-1.27-3.6L523.2,659.7z M554.61,594.26
	l-0.85,6.22l-0.5,4.72c-0.24,1.79-0.52,3.36-0.85,4.72l-0.21,1.44c-0.09,0.74,0.26,1.11,1.06,1.11c0.61,0,1.23-0.07,1.84-0.2
	l6.65-1.38c1.41-0.31,1.93-1.16,1.56-2.55l-0.64-2.1l-1.91-5.31l-1.49-4.52l-1.56-4.59l-0.71-1.9l-0.85-1.97
	C555.56,589.8,555.04,591.9,554.61,594.26z"/>
<path class="st0" d="M695.3,612.5c0,0-0.17-1.16-0.5-3.47c-0.14-1.31-0.24-2.88-0.28-4.72l0.07-4.72v-3.73
	c-0.24-7.29-0.24-15.53,0-24.7l0.35-5.04l0.5-5.11l0.21-6.16c0.05-1.53,0.19-2.77,0.42-3.73c0.24-0.7,0.56-1.33,0.99-1.9
	c0.61-0.79,1.37-1.07,2.26-0.85l7.29,1.64c1.32,0.31,2.52,0.85,3.61,1.64c0.8,0.66,1.51,1.14,2.12,1.44c2.03,1,3.44,2.73,4.25,5.18
	l2.62,9.11c0.24,0.83,0.38,1.7,0.42,2.62l0.21,8.32l0.21,5.9l0.07,5.9c0.14,5.76,0,10.22-0.42,13.36l-0.07,0.52v0.52
	c0.05,0.35,0.33,0.57,0.85,0.66l0.14,0.26l0.14,0.46l-0.07,1.31l-1.13,10.15l-0.14,0.39c-0.05,0.09-0.17,0.09-0.35,0l-0.64-0.79
	l-0.57,3.41l-0.49,3.34c-0.38,2.88-0.47,5.37-0.28,7.47c0.19,2.4-0.02,5.24-0.64,8.52l-0.35,3.21l-0.14,1.38
	c-0.42,2.36-1.91,3.32-4.46,2.88c-4.06-0.7-7.1-1.48-9.13-2.36c-2.55-1.09-4.27-2.84-5.17-5.24l-0.78-1.7l-0.78-1.77
	c-0.66-1.35-1.06-2.53-1.2-3.54l-0.28-0.66l-0.35-0.59l-8.84-13.5c-0.8-1.27-1.77-2.93-2.9-4.98l-5.59-10.61l-1.7-3.21l-1.77-3.28
	l-1.2-2.16l-1.27-2.1l-0.21-0.13l-0.28-0.13c-0.24,0.09-0.35,0.26-0.35,0.52l0.07,0.59l0.99,7.08l0.99,7.01
	c0.71,4.19,0.85,7.49,0.42,9.89c-0.09,0.7-0.07,1.59,0.07,2.69l0.21,3.08l-0.14,3.08c-0.1,2.36-0.45,5.33-1.06,8.91l-0.71,4.45
	l-0.71,4.45c-0.19,1.35-0.54,2.97-1.06,4.85l-1.55,4.72l-1.35,4.39c-0.33,1.18-1.13,1.88-2.4,2.1l-0.85,0.13
	c-1.94-0.09-3.7,0.48-5.31,1.7c-0.94,0.7-1.94,0.57-2.97-0.39c-0.47-0.44-1.11-0.85-1.91-1.24l-2.26-1.11
	c-1.18-0.52-1.98-1.48-2.41-2.88l-1.7-5.7l-1.7-5.7l-1.13-4.72c-0.33-1.75-0.5-3.34-0.5-4.78c0.05-1.53,0-3.41-0.14-5.63l-0.42-5.57
	l-0.35-7.66c-0.14-2.93-0.4-5.46-0.78-7.6l-0.21-1.7l-0.07-1.77l-0.99-9.63l-0.64-5.7l-0.28-5.76c-0.19-9.96-0.17-18.36,0.07-25.22
	l0.28-6.03c0.14-2.45,0.19-4.45,0.14-6.03c-0.05-1.44,0.73-2.42,2.34-2.95l2.9-0.79l2.9-0.79l0.28-0.07c1.37-0.26,2.9-0.13,4.6,0.39
	l2.12,0.79l2.12,0.85c1.65,0.61,2.92,1.88,3.82,3.8l1.34,2.82c0.52,1.14,0.87,2.12,1.06,2.95c0.14,0.48,0.42,0.94,0.85,1.38
	c0.94,1.05,1.39,2.29,1.34,3.73c-0.09,2.4,0.85,4.89,2.83,7.47c0.85,1.05,1.77,2.51,2.76,4.39l4.88,9.3l4.67,9.37l2.9,5.96
	c1.04,2.32,1.89,4.37,2.55,6.16c1.32,3.67,3.18,7.69,5.59,12.05l1.34,2.62l1.34,2.69l0.28,0.52c0.19,0.18,0.47,0.33,0.85,0.46
	C695.21,614.71,695.3,612.5,695.3,612.5z"/>
<path class="st0" d="M814.46,649.61l-0.21,1.38l-0.28,1.24c-0.28,0.96-0.85,1.79-1.7,2.49c-0.66,0.57-0.73,0.94-0.21,1.11l0.71,0.07
	h0.78l4.88,0.26l4.81,0.2l0.78,0.13l0.71,0.13c0.47,0.22,0.71,0.61,0.71,1.18c0,1.22-0.73,1.9-2.19,2.03l-3.26,0.33l-3.25,0.2
	c-2.64,0.17-4.81,0.46-6.51,0.85c-3.16,0.66-7.76,0.66-13.8,0l-6.86-0.72c-2.55-0.13-4.86,0.02-6.94,0.46
	c-0.52,0.09-0.92-0.02-1.2-0.33l-0.35-0.52l-0.28-0.59c-0.38-1.27,0.14-2.07,1.56-2.42c2.88-0.61,5.19-0.94,6.93-0.98
	c2.36-0.13,3.54-1.29,3.54-3.47c0.05-23.54-2.43-58.15-7.43-103.84c-0.24-2.45-1.56-3.56-3.96-3.34h-2.97l-2.9-0.26
	c-2.4-0.09-4.36,0.04-5.87,0.39c-0.75,0.18-1.35,0-1.77-0.52c-0.24-0.26-0.28-0.57-0.14-0.92l0.56-0.79
	c0.94-1.31,2.41-1.94,4.39-1.9c4.76,0.18,11.32-0.22,19.67-1.18l9.83-1.18c3.68-0.35,6.96-0.52,9.84-0.52h2.4
	c0.99,0,1.79,0.09,2.41,0.26c1.74,0.31,2.74,1.07,2.97,2.29c0.14,1-0.59,1.77-2.19,2.29l-2.12,0.59l-2.12,0.46
	c-0.42,0.18-1.09,0.28-1.98,0.33l-1.98,0.26l-0.78,0.2l-0.57,0.39c-0.42,0.39-0.38,0.83,0.14,1.31c1.46,1.22,2.36,2.84,2.69,4.85
	l0.28,2.75l0.14,2.62l1.84,12.51l1.63,12.64c1.18,9.61,1.82,18.02,1.91,25.22C817.06,623.06,816.3,637.08,814.46,649.61z"/>
<path class="st0" d="M260.29,797.29c-0.2-0.33-0.33-0.68-0.4-1.06c-0.06-0.37-0.11-0.62-0.14-0.73c-0.68-4.35-1.21-8.16-1.58-11.44
	c-0.37-3.28-0.56-6.52-0.56-9.72c0-1.47,0.05-2.94,0.14-4.4c0.06-0.72-0.05-1.24-0.33-1.56c-0.28-0.32-0.82-0.49-1.63-0.52
	c-3.14-0.14-5.78-0.32-7.93-0.52c-2.15-0.2-3.65-0.55-4.52-1.04c-0.65-0.4-0.98-0.95-0.98-1.64c0-0.49,0.12-0.9,0.37-1.23
	c0.25-0.33,0.62-0.54,1.12-0.63c0.71-0.17,2.08-0.26,4.1-0.26c3.76,0,8.5,0.24,14.22,0.71c5.72,0.47,9.33,0.94,10.82,1.4
	c1.03,0.32,1.49,0.86,1.4,1.64c-0.03,0.78-0.54,1.29-1.54,1.55c-1.03,0.26-2.25,0.39-3.68,0.39l-2.8-0.04
	c-0.56,0-1.04-0.01-1.45-0.04c-0.4-0.03-0.75-0.04-1.03-0.04c-0.5,0-0.85,0.09-1.05,0.26c-0.2,0.17-0.33,0.48-0.37,0.93
	c-0.05,0.45-0.05,1.27-0.02,2.48c0,0.12,0.06,1.32,0.19,3.63c0.03,0.95,0.13,3.21,0.3,6.78c0.17,3.57,0.26,6.46,0.26,8.68
	c0,1.44-0.05,2.49-0.14,3.15l-0.09,0.91c-0.06,0.92-0.19,1.63-0.37,2.12c-0.19,0.49-0.58,0.73-1.17,0.73
	C260.88,797.79,260.5,797.63,260.29,797.29z"/>
<path class="st0" d="M280.33,797.53l0.05-0.69c0.4-2.91,1.27-5.4,2.61-7.47c1.06-1.7,2.05-3.42,2.98-5.16
	c0.93-1.74,2.07-3.94,3.4-6.58c1.37-2.73,2.55-5.02,3.54-6.87c0.75-1.41,1.54-2.12,2.38-2.12c0.72,0,1.51,0.48,2.38,1.43
	c0.19,0.26,1.12,1.99,2.8,5.2c1.68,3.21,3.37,6.63,5.08,10.26c1.71,3.63,2.97,6.62,3.78,8.98c0.25,0.58,0.37,1.15,0.37,1.73
	c0,0.86-0.31,1.43-0.93,1.68c-0.19,0.09-0.4,0.13-0.65,0.13c-0.93,0-1.94-0.63-3.01-1.9c-1.07-1.27-1.81-2.6-2.21-4.02
	c-0.31-1.09-0.82-1.84-1.54-2.25s-1.69-0.58-2.94-0.52c-1.43,0.06-2.52,0.09-3.26,0.09c-2.02,0-3.78-0.13-5.27-0.39
	c-0.16-0.03-0.36-0.04-0.61-0.04c-0.9,0-1.54,0.46-1.91,1.38l-0.42,1.12c-0.93,2.39-1.78,4.25-2.54,5.59
	c-0.76,1.34-1.61,2.01-2.54,2.01c-0.12,0-0.28-0.03-0.47-0.09C280.69,798.87,280.33,798.37,280.33,797.53z M298.89,784.45
	l-4.15-8.72c-0.16,0.29-0.32,0.62-0.49,0.99c-0.17,0.38-0.37,0.76-0.58,1.17c-0.96,2.07-2.04,4.26-3.22,6.56H298.89z"/>
<path class="st0" d="M334.35,797.99c-3.98,0-8.74-0.65-14.27-1.94c-1.43-0.37-2.53-0.99-3.31-1.86c-0.78-0.86-1.17-1.87-1.17-3.02
	c0-0.29,0.02-0.5,0.05-0.65c0.06-0.49,0.16-0.88,0.3-1.19c0.14-0.3,0.41-0.53,0.82-0.67c0.25-0.09,0.45-0.13,0.61-0.13
	c0.43,0,0.96,0.23,1.59,0.69c2.18,1.7,4.72,2.96,7.62,3.78c2.91,0.82,5.74,1.23,8.51,1.23c1.46,0,2.78-0.11,3.96-0.35
	c1.18-0.23,2.13-0.55,2.85-0.95c0.75-0.4,1.33-0.9,1.75-1.49c0.42-0.59,0.63-1.22,0.63-1.88c0-0.63-0.2-1.24-0.58-1.81
	c-0.39-0.58-0.96-1.06-1.7-1.47c-1.65-0.89-3.27-1.57-4.87-2.03c-1.6-0.46-3.6-0.92-5.99-1.38c-2.27-0.46-4.11-0.88-5.53-1.27
	c-1.42-0.39-2.87-0.96-4.36-1.71c-1.62-0.86-2.82-1.91-3.61-3.13c-0.79-1.22-1.19-2.53-1.19-3.91c0-1.55,0.46-3.02,1.38-4.4
	c0.92-1.38,2.15-2.43,3.71-3.15c2.86-1.35,5.78-2.03,8.77-2.03c2.33,0,4.68,0.42,7.04,1.25c3.36,1.21,5.44,3.67,6.25,7.38
	c0.03,0.09,0.06,0.19,0.09,0.32c0.03,0.13,0.05,0.28,0.05,0.45c0,0.58-0.28,0.98-0.84,1.21c-0.44,0.14-0.89,0-1.35-0.43
	c-0.47-0.43-1.01-1.09-1.63-1.99l-0.56-0.82c-0.9-1.18-2.14-2.08-3.71-2.7c-1.57-0.62-3.23-0.93-4.97-0.93
	c-1.68,0-3.25,0.28-4.71,0.84c-1.46,0.56-2.63,1.37-3.5,2.44c-0.65,0.81-0.98,1.63-0.98,2.46c0,1.09,0.56,2.03,1.68,2.81
	c0.65,0.43,4.04,1.58,10.17,3.45c2.39,0.75,4.73,1.5,7.02,2.25s3.8,1.31,4.55,1.68c2.92,1.47,4.38,3.58,4.38,6.35
	c0,1.58-0.42,2.94-1.26,4.08c-0.84,1.14-2.02,2.05-3.54,2.74C341.7,797.37,338.33,797.99,334.35,797.99z"/>
<path class="st0" d="M383.92,795.91c-0.65-0.33-1.1-0.84-1.33-1.53c-0.23-0.69-0.35-1.77-0.35-3.24c0-2.1,0.08-4.45,0.23-7.04
	l0.19-5.01c0-0.92,0.09-2.3,0.28-4.15c0.19-2.02,0.28-3.56,0.28-4.62c0-1.5-0.14-2.82-0.42-3.97c-0.03-0.11-0.05-0.29-0.05-0.52
	c0-0.43,0.15-0.76,0.44-0.99c0.3-0.23,0.74-0.43,1.33-0.6c1.4-0.46,3.05-0.69,4.94-0.69l1.49,0.04c4.1,0.14,8.46,0.34,13.08,0.58
	c4.62,0.25,7.16,0.43,7.62,0.54c0.53,0.12,0.96,0.32,1.31,0.63c0.34,0.3,0.51,0.68,0.51,1.14c-0.03,0.58-0.25,1.01-0.65,1.3
	c-0.4,0.29-0.93,0.45-1.59,0.48l-3.64,0.04c-2.11,0-3.89-0.09-5.32-0.26c-1.93-0.2-3.91-0.34-5.95-0.41
	c-2.04-0.07-4.39-0.11-7.07-0.11c-0.68,0-1.19,0.11-1.52,0.32c-0.33,0.22-0.49,0.58-0.49,1.1c0,0.23,0.02,0.42,0.05,0.56
	c0.22,1.27,0.39,3.15,0.51,5.66c0.03,0.69,0.18,1.2,0.44,1.51c0.26,0.32,0.71,0.47,1.33,0.47c0.31,0,0.56-0.01,0.75-0.04
	c2.15-0.29,4.37-0.43,6.67-0.43c2.52,0,5.3,0.14,8.35,0.43c0.31,0.03,0.58,0.04,0.82,0.02c0.23-0.01,0.43-0.02,0.58-0.02
	c0.56,0,1,0.09,1.31,0.28c0.31,0.19,0.48,0.54,0.51,1.06c0,0.58-0.2,0.96-0.61,1.14c-0.4,0.19-0.87,0.3-1.4,0.35
	c-0.53,0.04-0.93,0.08-1.21,0.11c-3.76,0.72-8.35,1.18-13.76,1.38c-1.24,0.03-2.07,0.09-2.47,0.2c-0.41,0.1-0.65,0.33-0.75,0.69
	c-0.09,0.36-0.16,1.09-0.19,2.18v4.53c-0.03,1.01-0.01,1.67,0.07,1.99c0.08,0.32,0.3,0.52,0.68,0.6c0.37,0.09,1.14,0.12,2.29,0.09
	c2.61-0.09,6.16-0.13,10.63-0.13c3.29,0,5.3,0.06,6.02,0.17c0.87,0.14,1.52,0.27,1.94,0.37c0.42,0.1,0.8,0.3,1.14,0.6
	c0.34,0.3,0.51,0.74,0.51,1.32c0,0.78-0.27,1.31-0.82,1.6c-0.54,0.29-1.12,0.48-1.73,0.58c-0.61,0.1-1,0.17-1.19,0.19
	c-0.78,0.17-2.42,0.3-4.94,0.39c-2.52,0.09-5.18,0.13-7.97,0.13c-4.23,0-6.83-0.07-7.79-0.22
	C385.61,796.51,384.57,796.24,383.92,795.91z"/>
<path class="st0" d="M419.29,795.66c0.06-1.76,0.14-3.22,0.23-4.38c0.09-1.17,0.25-2.32,0.47-3.48c0.65-3.34,1.15-6.43,1.49-9.26
	c0.34-2.84,0.5-5.62,0.47-8.36c0-0.66,0.03-1.17,0.09-1.51c0.19-1.24,0.67-1.86,1.45-1.86c0.4,0,0.92,0.22,1.54,0.65
	c1.65,1.15,3.09,2.46,4.34,3.93c1.96,2.36,4.38,5.07,7.25,8.14c2.88,3.07,5.5,5.74,7.86,8.01c2.36,2.27,3.76,3.48,4.2,3.63
	c0.06-1.56,0.09-2.68,0.09-3.37c0-1.47-0.09-2.69-0.28-3.67c-0.19-1.06-0.28-2.4-0.28-4.02s0.19-4.06,0.56-7.34
	c0.25-2.3,0.4-4.03,0.47-5.18c0.03-0.46,0.18-0.85,0.44-1.17c0.26-0.32,0.63-0.48,1.1-0.48c0.5,0,0.85,0.16,1.05,0.48
	c0.2,0.32,0.35,0.73,0.44,1.25c0.12,1.99,0.35,5.95,0.68,11.88c0.33,5.93,0.49,10.25,0.49,12.95c0,1.9-0.22,3.51-0.65,4.84
	c-0.44,1.32-1.14,1.99-2.1,1.99c-0.59,0-1.24-0.27-1.96-0.82c-0.62-0.43-1.21-0.96-1.75-1.6c-0.54-0.63-0.88-1.02-1-1.17
	c-0.87-0.98-2-2.28-3.38-3.91c-1.38-1.63-2.43-2.84-3.15-3.65c-4.1-4.86-7.41-8.66-9.91-11.38c-2.5-2.72-4.07-4.04-4.69-3.95
	l-1.03,17.1c-0.03,0.4-0.04,0.79-0.02,1.14c0.01,0.36,0.02,0.67,0.02,0.93c0.03,0.35,0.05,0.89,0.05,1.64
	c0,1.56-0.17,2.81-0.51,3.76c-0.34,0.95-1,1.5-1.96,1.64C419.9,799.24,419.2,798.11,419.29,795.66z"/>
<path class="st0" d="M510.58,795.94c-2.36,0.85-4.77,1.27-7.23,1.27c-3.02,0-5.82-0.62-8.42-1.86c-2.6-1.24-4.68-3.04-6.25-5.4
	c-1.57-2.36-2.36-5.17-2.36-8.42c0-1.06,0.12-2.32,0.37-3.76c0.78-4.17,2.6-7.39,5.46-9.65c2.86-2.26,6.47-3.39,10.82-3.39
	c0.56,0,1.49,0.06,2.8,0.17c1.83,0.17,3.52,0.43,5.06,0.78s2.99,0.86,4.36,1.55c4.32,2.22,6.48,5.27,6.48,9.16
	c0,0.72-0.3,1.15-0.89,1.29l-0.37,0.09c-0.41,0-0.74-0.17-1-0.52c-0.26-0.35-0.57-0.86-0.91-1.56c-0.22-0.49-0.42-0.88-0.6-1.17
	c-1.34-2.25-3.1-3.76-5.27-4.53c-2.74-0.95-5.44-1.43-8.11-1.43c-0.9,0-1.93,0.07-3.08,0.22c-3.51,0.46-6.23,2.16-8.16,5.1
	c-1.53,2.33-2.29,4.87-2.29,7.6c0,1.47,0.2,2.94,0.61,4.4c0.75,2.82,2.8,4.85,6.16,6.09c2.11,0.78,4.23,1.17,6.34,1.17
	c2.95,0,5.71-0.73,8.25-2.18c2.55-1.45,4.6-3.49,6.16-6.11c0.06-0.11,0.16-0.29,0.28-0.52c0.12-0.23,0.25-0.41,0.37-0.54
	c0.12-0.13,0.3-0.19,0.51-0.19c0.06,0,0.22,0.03,0.47,0.09c0.31,0.12,0.5,0.29,0.56,0.52c0.06,0.23,0.09,0.6,0.09,1.12
	c-0.12,2.5-1.4,4.78-3.83,6.82C515.07,793.83,512.94,795.09,510.58,795.94z"/>
<path class="st0" d="M640.12,795.94c-2.36,0.85-4.77,1.27-7.23,1.27c-3.02,0-5.82-0.62-8.42-1.86c-2.6-1.24-4.68-3.04-6.25-5.4
	c-1.57-2.36-2.36-5.17-2.36-8.42c0-1.06,0.12-2.32,0.37-3.76c0.78-4.17,2.6-7.39,5.46-9.65c2.86-2.26,6.47-3.39,10.82-3.39
	c0.56,0,1.49,0.06,2.8,0.17c1.83,0.17,3.52,0.43,5.06,0.78c1.54,0.35,2.99,0.86,4.36,1.55c4.32,2.22,6.48,5.27,6.48,9.16
	c0,0.72-0.3,1.15-0.89,1.29l-0.37,0.09c-0.41,0-0.74-0.17-1-0.52c-0.26-0.35-0.57-0.86-0.91-1.56c-0.22-0.49-0.42-0.88-0.6-1.17
	c-1.34-2.25-3.1-3.76-5.27-4.53c-2.74-0.95-5.44-1.43-8.11-1.43c-0.9,0-1.93,0.07-3.08,0.22c-3.51,0.46-6.23,2.16-8.16,5.1
	c-1.53,2.33-2.29,4.87-2.29,7.6c0,1.47,0.2,2.94,0.61,4.4c0.74,2.82,2.8,4.85,6.16,6.09c2.11,0.78,4.23,1.17,6.34,1.17
	c2.95,0,5.71-0.73,8.25-2.18c2.55-1.45,4.6-3.49,6.16-6.11c0.06-0.11,0.16-0.29,0.28-0.52c0.12-0.23,0.25-0.41,0.37-0.54
	c0.12-0.13,0.3-0.19,0.51-0.19c0.06,0,0.22,0.03,0.47,0.09c0.31,0.12,0.5,0.29,0.56,0.52c0.06,0.23,0.09,0.6,0.09,1.12
	c-0.12,2.5-1.4,4.78-3.83,6.82C644.62,793.83,642.49,795.09,640.12,795.94z"/>
<path class="st0" d="M539.94,795.06c-2.69-1.08-5.03-2.6-7.02-4.58c-1.99-1.97-3.48-4.25-4.48-6.84c-0.56-1.55-0.84-3.05-0.84-4.49
	c0-3.05,1.12-5.83,3.36-8.33c2.45-2.79,5.14-4.89,8.07-6.3c2.92-1.41,5.94-2.12,9.05-2.12c3.08,0,6.1,0.66,9.07,1.99
	c2.97,1.32,5.74,3.25,8.32,5.79c1.12,1.09,1.95,2.32,2.5,3.67c0.54,1.35,0.82,2.76,0.82,4.23c0,1.27-0.23,2.66-0.7,4.19
	c-1.49,4.69-3.82,8.27-6.97,10.73c-3.16,2.46-7.39,3.69-12.71,3.69C545.45,796.68,542.63,796.14,539.94,795.06z M541.62,791.11
	c2.16,0.84,4.48,1.25,6.97,1.25c2.42,0,4.76-0.4,7-1.21c2.24-0.81,4.17-1.99,5.81-3.56c1.63-1.57,2.71-3.45,3.24-5.64
	c0.31-1.18,0.47-2.36,0.47-3.54c0-3.51-1.62-6.28-4.85-8.29c-4.1-2.53-8.3-3.76-12.59-3.67h-1.45c-1.06,0-1.95,0.08-2.68,0.24
	s-1.41,0.51-2.03,1.06c-2.08,1.79-3.77,3.61-5.06,5.48c-1.29,1.87-2.14,3.94-2.54,6.22c-0.09,0.55-0.14,1.09-0.14,1.64
	c0,2.22,0.87,4.33,2.61,6.35C537.71,789.05,539.46,790.28,541.62,791.11z"/>
<path class="st0" d="M574.72,795.66c0.06-1.76,0.14-3.22,0.23-4.38c0.09-1.17,0.25-2.32,0.47-3.48c0.65-3.34,1.15-6.43,1.49-9.26
	c0.34-2.84,0.5-5.62,0.47-8.36c0-0.66,0.03-1.17,0.09-1.51c0.19-1.24,0.67-1.86,1.45-1.86c0.4,0,0.92,0.22,1.54,0.65
	c1.65,1.15,3.09,2.46,4.34,3.93c1.96,2.36,4.38,5.07,7.25,8.14c2.88,3.07,5.5,5.74,7.86,8.01c2.36,2.27,3.76,3.48,4.2,3.63
	c0.06-1.56,0.09-2.68,0.09-3.37c0-1.47-0.09-2.69-0.28-3.67c-0.19-1.06-0.28-2.4-0.28-4.02s0.19-4.06,0.56-7.34
	c0.25-2.3,0.4-4.03,0.47-5.18c0.03-0.46,0.18-0.85,0.44-1.17c0.26-0.32,0.63-0.48,1.1-0.48c0.5,0,0.85,0.16,1.05,0.48
	c0.2,0.32,0.35,0.73,0.44,1.25c0.12,1.99,0.35,5.95,0.67,11.88c0.33,5.93,0.49,10.25,0.49,12.95c0,1.9-0.22,3.51-0.65,4.84
	c-0.44,1.32-1.14,1.99-2.1,1.99c-0.59,0-1.24-0.27-1.96-0.82c-0.62-0.43-1.21-0.96-1.75-1.6c-0.54-0.63-0.88-1.02-1-1.17
	c-0.87-0.98-2-2.28-3.38-3.91c-1.38-1.63-2.43-2.84-3.15-3.65c-4.1-4.86-7.41-8.66-9.91-11.38c-2.5-2.72-4.07-4.04-4.69-3.95
	l-1.03,17.1c-0.03,0.4-0.04,0.79-0.02,1.14c0.01,0.36,0.02,0.67,0.02,0.93c0.03,0.35,0.05,0.89,0.05,1.64
	c0,1.56-0.17,2.81-0.51,3.76c-0.34,0.95-1,1.5-1.96,1.64C575.32,799.24,574.62,798.11,574.72,795.66z"/>
<path class="st0" d="M656.61,795.95c-0.26-0.33-0.38-0.75-0.38-1.29c0-0.24,0.03-0.59,0.1-1.07c0.29-2.81,0.5-7.03,0.62-12.66
	c0.03-0.65,0.07-2.01,0.12-4.09c0.05-2.07,0.14-3.98,0.26-5.73c0.06-0.59,0.1-1.05,0.1-1.38c0-0.24-0.03-0.53-0.1-0.89
	c-0.22-0.98-0.34-1.69-0.34-2.13c0-0.74,0.24-1.31,0.72-1.71c0.48-0.4,1.33-0.73,2.54-1c1.66-0.38,3.31-0.55,4.94-0.49
	c4.09,0.12,8.08,0.77,11.95,1.96c3.87,1.18,6.84,2.58,8.92,4.18c1.6,1.21,2.4,2.58,2.4,4.09c0,1.48-0.8,2.86-2.4,4.13
	c-0.74,0.59-1.57,1.1-2.49,1.51c-0.93,0.41-2.11,0.84-3.55,1.29l2.54,2.53c4.35,4.15,6.7,6.62,7.05,7.42
	c0.1,0.21,0.26,0.53,0.5,0.96c0.24,0.43,0.36,0.81,0.36,1.13c0,0.44-0.21,0.82-0.62,1.11c-0.39,0.27-0.74,0.4-1.06,0.4
	c-0.39,0-0.74-0.1-1.06-0.31c-0.32-0.21-0.71-0.52-1.15-0.93l-2.02-1.78c-1.12-0.98-2.03-1.81-2.74-2.49
	c-0.7-0.68-1.34-1.39-1.92-2.13c-0.99-1.27-1.89-2.18-2.71-2.71c-0.82-0.53-1.67-0.86-2.57-0.98c-0.9-0.12-2.27-0.19-4.13-0.22
	c-0.32,0-1.17-0.01-2.54-0.04c-1.38-0.03-2.88-0.12-4.51-0.27c-0.86-0.03-1.47,0.13-1.82,0.49c-0.35,0.36-0.54,0.95-0.58,1.78
	c-0.06,1.16-0.22,2.99-0.48,5.51l-0.19,1.82c0,0.18-0.01,0.47-0.03,0.89c-0.02,0.41-0.07,0.77-0.17,1.07
	c-0.26,0.83-0.52,1.46-0.79,1.89c-0.27,0.43-0.73,0.64-1.37,0.64C657.35,796.44,656.87,796.28,656.61,795.95z M670.57,779.07
	c4.16,0,7.66-0.46,10.51-1.38c1.22-0.39,2.22-0.87,3.02-1.44c0.8-0.58,1.23-1.35,1.29-2.33c0.06-1.21-0.96-2.29-3.07-3.22
	c-2.11-0.93-4.69-1.64-7.75-2.13c-3.06-0.49-5.81-0.7-8.28-0.64h-1.06c-1.34,0.03-2.25,0.08-2.73,0.16
	c-0.48,0.08-0.79,0.26-0.94,0.56c-0.14,0.3-0.22,0.84-0.22,1.64v2.27c0,0.36-0.07,0.95-0.19,1.78c-0.13,0.95-0.19,1.67-0.19,2.18
	c0,1.04,0.29,1.82,0.86,2.35c0.45,0.41,1.14,0.62,2.06,0.62c0.67,0,1.46-0.07,2.35-0.22c1.28-0.15,2.05-0.22,2.3-0.22L670.57,779.07
	z"/>
<path class="st0" d="M696.99,795.91c-0.65-0.33-1.1-0.84-1.33-1.53c-0.23-0.69-0.35-1.77-0.35-3.24c0-2.1,0.08-4.45,0.23-7.04
	l0.19-5.01c0-0.92,0.09-2.3,0.28-4.15c0.19-2.02,0.28-3.56,0.28-4.62c0-1.5-0.14-2.82-0.42-3.97c-0.03-0.11-0.05-0.29-0.05-0.52
	c0-0.43,0.15-0.76,0.44-0.99c0.3-0.23,0.74-0.43,1.33-0.6c1.4-0.46,3.05-0.69,4.94-0.69l1.49,0.04c4.1,0.14,8.46,0.34,13.08,0.58
	c4.62,0.25,7.16,0.43,7.63,0.54c0.53,0.12,0.96,0.32,1.31,0.63c0.34,0.3,0.51,0.68,0.51,1.14c-0.03,0.58-0.25,1.01-0.65,1.3
	c-0.4,0.29-0.93,0.45-1.58,0.48l-3.64,0.04c-2.11,0-3.89-0.09-5.32-0.26c-1.93-0.2-3.91-0.34-5.95-0.41
	c-2.04-0.07-4.39-0.11-7.07-0.11c-0.68,0-1.19,0.11-1.51,0.32c-0.33,0.22-0.49,0.58-0.49,1.1c0,0.23,0.02,0.42,0.05,0.56
	c0.22,1.27,0.39,3.15,0.51,5.66c0.03,0.69,0.18,1.2,0.44,1.51c0.26,0.32,0.71,0.47,1.33,0.47c0.31,0,0.56-0.01,0.75-0.04
	c2.15-0.29,4.37-0.43,6.67-0.43c2.52,0,5.3,0.14,8.35,0.43c0.31,0.03,0.58,0.04,0.82,0.02c0.23-0.01,0.43-0.02,0.58-0.02
	c0.56,0,0.99,0.09,1.31,0.28c0.31,0.19,0.48,0.54,0.51,1.06c0,0.58-0.2,0.96-0.61,1.14c-0.4,0.19-0.87,0.3-1.4,0.35
	c-0.53,0.04-0.93,0.08-1.21,0.11c-3.76,0.72-8.35,1.18-13.76,1.38c-1.24,0.03-2.07,0.09-2.47,0.2c-0.4,0.1-0.65,0.33-0.75,0.69
	c-0.09,0.36-0.16,1.09-0.19,2.18v4.53c-0.03,1.01-0.01,1.67,0.07,1.99c0.08,0.32,0.3,0.52,0.68,0.6c0.37,0.09,1.13,0.12,2.28,0.09
	c2.61-0.09,6.16-0.13,10.63-0.13c3.29,0,5.3,0.06,6.02,0.17c0.87,0.14,1.51,0.27,1.93,0.37c0.42,0.1,0.8,0.3,1.14,0.6
	c0.34,0.3,0.51,0.74,0.51,1.32c0,0.78-0.27,1.31-0.82,1.6c-0.54,0.29-1.12,0.48-1.73,0.58c-0.61,0.1-1,0.17-1.19,0.19
	c-0.78,0.17-2.42,0.3-4.94,0.39c-2.52,0.09-5.18,0.13-7.98,0.13c-4.23,0-6.82-0.07-7.79-0.22
	C698.68,796.51,697.64,796.24,696.99,795.91z"/>
<path class="st0" d="M750.45,797.29c-0.2-0.33-0.33-0.68-0.4-1.06c-0.06-0.37-0.11-0.62-0.14-0.73c-0.69-4.35-1.21-8.16-1.59-11.44
	c-0.37-3.28-0.56-6.52-0.56-9.72c0-1.47,0.05-2.94,0.14-4.4c0.06-0.72-0.05-1.24-0.33-1.56c-0.28-0.32-0.82-0.49-1.63-0.52
	c-3.14-0.14-5.78-0.32-7.93-0.52c-2.15-0.2-3.65-0.55-4.52-1.04c-0.65-0.4-0.98-0.95-0.98-1.64c0-0.49,0.12-0.9,0.37-1.23
	c0.25-0.33,0.62-0.54,1.12-0.63c0.72-0.17,2.08-0.26,4.1-0.26c3.76,0,8.5,0.24,14.22,0.71c5.72,0.47,9.33,0.94,10.82,1.4
	c1.03,0.32,1.49,0.86,1.4,1.64c-0.03,0.78-0.54,1.29-1.54,1.55c-1.03,0.26-2.25,0.39-3.68,0.39l-2.8-0.04
	c-0.56,0-1.04-0.01-1.45-0.04c-0.4-0.03-0.75-0.04-1.03-0.04c-0.5,0-0.85,0.09-1.05,0.26c-0.2,0.17-0.33,0.48-0.37,0.93
	c-0.05,0.45-0.05,1.27-0.02,2.48c0,0.12,0.06,1.32,0.19,3.63c0.03,0.95,0.13,3.21,0.3,6.78c0.17,3.57,0.26,6.46,0.26,8.68
	c0,1.44-0.05,2.49-0.14,3.15l-0.09,0.91c-0.06,0.92-0.19,1.63-0.37,2.12c-0.19,0.49-0.58,0.73-1.17,0.73
	C751.03,797.79,750.65,797.63,750.45,797.29z"/>
<path class="st0" d="M782.82,795.06c-2.69-1.08-5.03-2.6-7.02-4.58c-1.99-1.97-3.48-4.25-4.48-6.84c-0.56-1.55-0.84-3.05-0.84-4.49
	c0-3.05,1.12-5.83,3.36-8.33c2.45-2.79,5.14-4.89,8.07-6.3c2.92-1.41,5.94-2.12,9.05-2.12c3.08,0,6.1,0.66,9.07,1.99
	c2.97,1.32,5.74,3.25,8.33,5.79c1.12,1.09,1.95,2.32,2.5,3.67c0.54,1.35,0.82,2.76,0.82,4.23c0,1.27-0.23,2.66-0.7,4.19
	c-1.49,4.69-3.82,8.27-6.97,10.73c-3.16,2.46-7.39,3.69-12.71,3.69C788.33,796.68,785.51,796.14,782.82,795.06z M784.5,791.11
	c2.16,0.84,4.49,1.25,6.97,1.25c2.43,0,4.76-0.4,7-1.21c2.24-0.81,4.17-1.99,5.81-3.56c1.63-1.57,2.71-3.45,3.24-5.64
	c0.31-1.18,0.47-2.36,0.47-3.54c0-3.51-1.62-6.28-4.85-8.29c-4.1-2.53-8.3-3.76-12.59-3.67h-1.45c-1.06,0-1.95,0.08-2.68,0.24
	c-0.73,0.16-1.41,0.51-2.03,1.06c-2.08,1.79-3.77,3.61-5.06,5.48c-1.29,1.87-2.14,3.94-2.54,6.22c-0.09,0.55-0.14,1.09-0.14,1.64
	c0,2.22,0.87,4.33,2.61,6.35C780.59,789.05,782.34,790.28,784.5,791.11z"/>
<g>
	<polygon class="st1" points="374.72,265.45 376.43,264.08 381.09,259.81 384.56,258.07 387.17,255.03 394.56,249.81 396.73,247.21 
		398.9,245.9 404.11,245.9 414.11,245.9 422.36,245.9 426.7,245.04 430.18,245.04 442.78,243.73 461.89,242.86 467.98,242.86 
		471.89,243.73 479.71,246.34 485.79,249.81 490.57,251.99 494.91,253.72 499.69,255.46 502.73,256.76 504.03,258.07 500.99,258.94 
		496.21,258.07 491,259.37 479.8,261.68 467.54,264.58 459.29,265.89 454.07,267.63 451.03,268.49 449.3,268.49 447.56,270.23 
		446.25,271.1 444.08,272.4 439.3,268.49 399.25,265.81 382.31,264.51 	"/>
	<polyline class="st2" points="435.72,271.22 431.81,377.25 474.49,372.54 482.89,371.05 520.41,288.31 518.43,284.26 	"/>
	<path class="st3" d="M377.61,263.86l61.69,4.63l4.78,3.91l2.17,32l-50.97,33.02c0,0-37.8-38.45-37.8-39.82
		c0-1.38,5.36-7.39,5.65-8.25s4.34-9.85,4.34-9.85l3.91-8.54l2.03-4.05l1.3-1.45L377.61,263.86z"/>
	<path class="st4" d="M357.49,297.55c0,0-0.44,3.67-0.87,5.7c-0.43,2.03-0.87,4.78-0.87,4.78v2.75v2.75v3.19v1.59v2.17
		c0,0,4.63,6.08,5.36,6.81c0,0,3.19,3.62,3.62,5.07l5.65,10.72l1.88,2.03l1.88,2.61l2.17,2.61l6.95,10.28l1.45,1.16l2.46,1.74
		l24.36,12.44l2.57,1.31l-18.68-39.68L357.49,297.55z"/>
	<polygon class="st2" points="474.49,372.54 482.89,371.05 504.03,329.75 507.94,319.76 512.72,307.59 520.11,289.35 520.54,288.04 
		496.65,332.36 	"/>
	<polygon class="st5" points="444.08,272.4 446.25,304.99 448.88,305.42 452.75,308.03 458.85,311.07 463.6,313.93 467.11,316.28 
		471.02,317.59 473.62,318.89 477.1,321.06 481.01,324.1 484.48,326.71 487.96,328.88 494.48,331.75 496.43,332.57 520.54,288.04 
		520.54,285.87 517.5,278.49 516.2,276.31 514.03,273.27 513.59,272.4 512.29,269.36 510.55,267.19 509.68,265.45 509.68,263.72 
		506.21,261.54 505.34,259.37 504.03,258.07 500.99,258.94 496.21,258.07 491,259.37 484.48,260.67 475.8,262.41 467.11,264.58 
		459.29,265.89 451.03,268.49 448.86,268.49 447.56,270.23 	"/>
	<polygon class="st6" points="402.95,258.03 407.15,254.16 409.76,254.16 413.24,252.85 417.15,250.68 425.84,249.38 433.66,249.38 
		442.34,248.08 453.21,247.64 461.02,248.51 469.28,248.95 472.75,250.68 472.75,252.85 473.62,252.85 474.49,255.03 475.36,256.33 
		471.89,259.37 468.41,261.11 460.16,261.54 454.51,261.54 449.3,261.54 440.61,263.72 428.01,263.28 419.75,262.41 411.93,261.11 
		406.42,259.8 403.81,259.37 402.95,259.34 	"/>
	<polyline class="st7" points="414.11,377.25 395.28,337.43 446.25,304.41 448.86,305.2 453.64,308.25 461.46,312.37 466.67,315.85 
		473.47,318.6 480.57,323.45 486.28,327.83 496.43,332.57 474.49,372.54 465.8,373.63 450.5,376.47 414.97,377.97 	"/>
</g>
<g>
	<defs>
		<path id="SVGID_1_" d="M488.38,98.39l-5.23-0.45l-0.84-6.27l-2.77,0.84l-3.86,6.63l-4.7-2.77l-4.46-2.53V83.82l-6.28,5.31
			l-3.43-6.44l-2.12,0.41l0.12,9.53l-7.84-1.21l-5.28,0.09l-2.27-8.17l-4.16,5.31l-2.8-3.38l-3.87,0.79l1.96,7.29l-8.32,1.69
			L420.96,91l-4.65-5.01l-1.81,5.07l-7.24,0.48l4.1,7.6l-7.72,6.51l-6.88-3.38l-2.18,2.43l2.42,4.57l-6.46,2.96l8.15,4.15
			l-2.72,4.82l-3.31,2.78l-5.67-2.17l2.3-3.75l-5.08-1.56l-3.86-8.93l0.97-7l-6.27,0.24l-2.77-5.19l-4.1,6.23l-7.24-1.77l-3.14-4.34
			l-4.42-0.8l-0.72,4.42l-4.1-1.53l-0.48,4.34l0.8,4.74l-2.33,3.14l-5.39,0.32l0.72,4.66l-3.26,3.26l4.7,2.77l0.48,3.62v5.55
			l-3.64,4.6l5.33,1.67l-0.86,4l1.34,2.28l5.31-1.21l5.31,5.55l-1.87,7.35l6.45-1.8l0.97,4.58l1.87,0.39l2.71-2.56l2.9,4.34
			l2.65,6.51l3.62-0.24l3.31,3.3l1.35,6.65l2.77,1.53l-4.02,4.89l1.9,3.42l4.58,3.86l0.48,7l-9.25,8.39l7.07,2.95l-2.52,6.96
			l8.31,1.97l2.17,7.72l-8.41,2.38l2.86,6.06l1.69,7.72l7.96-2.9l2.73,8.28l3.28,11.73l0.77,0.43v1.3h0.87l2.61,0.43l5.65,1.3
			l7.82,1.3l8.25,0.87l12.6,0.43l8.69-2.17h5.21h5.65l8.25-0.43l3.48-1.74l3.48-3.04c0,0,4.08-2.58,4.55-4.23
			c0.33-1.19,6.28-13.99,6.84-15.52c0.11-0.31,6.97,2.35,7.8,1.61c0.43-0.39,2.18,5.72,2.65,5.31c1.32-1.15,2.46-1.56,2.65-2.01
			c0.37-0.85,4.21,3.38,4.64,2.61c0.52-0.92-0.25-6.03,0.35-6.71c0.58-0.67,9.96,0.96,10.62,0.64c2.69-1.29,5.95,4.88,5.79,3.94
			c-0.03-0.16,1.18-2.45,1.77-3.62c0.52-1.03,2.99,1.8,3.46,1.85c0.74,0.08,1.16-0.41,1.77-1.21c0.36-0.48-1.89-5.08-1.53-5.55
			c0.15-0.2,8.95-1.41,9.09-1.61c0.52-0.73,3.87,5.62,3.97,5.04c0.14-0.83,1.57-2.85,1.9-3.6c0.38-0.85,3.64,1.54,4.34,0.88
			c3.06-2.85-2.46-4.94-0.97-6.35c0.85-0.8,7.76-4.83,8.61-5.63c1.05-1,5.25,3.85,6.28,2.87c1.31-1.25-0.11-2.66,0.27-4.19
			c0.32-1.26,4.97-0.79,4.83-2.17c-0.09-0.82-3.77-2.23-3.98-3.08c-0.37-1.47,4.01-4.36,3.38-5.85c-0.23-0.54,1.33-3.82,1.87-4.49
			c0.43-0.53,0.64-2.37,1.21-2.93c0.22-0.22,4.99,2.16,5.2,1.95c0.99-1.01,1.76-1.98,1.37-2.73c-1.33-2.57,2.72-3.94,1.57-5.67
			c-0.45-0.68-1.68-0.96-2.77-1.57c-0.82-0.46-2.94,0.1-3.74-0.24c-1.37-0.59-1.21-4.76-1.21-4.76l-1.39-5.43l4.22-6.45l-4.76-0.36
			l-0.02-4.01l-1.06-0.27l-3.86,3.88l-5.93-2.99l-4.93-1.32h-6.03l-2.19-5.73l-2.64,2.59l-1.81-0.48l-3.15-0.57l1.58,6.24l-7.12,2.9
			l-5.99,4.41l-4.63-4.78l-1.43,0.48l0.65,5.64l-3.7-0.1l-1.92,1.47l4.72,3.95l-9.19,5.95l-7.96-2.29l0.97-7.6l1.09-5.91l3.26-1.33
			l5.78-2.36l-3.61-5.24l3.85-3.66l-0.95-2.49l-8.09,1.21l0.81-9.57l0.04-8.77l7.24-3.86l-0.12-1.33l-5.55-1.81l4.1-5.55l-1.81-1.81
			l-7.12,3.14l-2.41-8.69l4.1-4.22l2.19-4.69l-5.81-0.98l0.6-7.48l-2.97,0.13l-4.51,6.15l-7.12-9.77l5.19-3.74L488.38,98.39z"/>
	</defs>
	<clipPath id="SVGID_2_">
		<use xlink:href="#SVGID_1_"  style="overflow:visible;"/>
	</clipPath>
	<g class="st8">
		<path class="st9" d="M448.48,257.11c0.34,0.75,0.78,6.78,0.91,7.66c0.53,3.49-20.99,2.78-21.46,0.43l-1.32-7.29L448.48,257.11z"/>
		<polygon class="st10" points="468.96,264.9 469.57,263.97 472.61,258.74 462.03,259.9 461.11,264.49 467,265.01 		"/>
		<polygon class="st11" points="448.02,265.12 446.83,253.45 462.17,256.73 462.58,257.69 461.08,265.82 		"/>
		<polygon class="st10" points="428.46,265.82 427.07,257.76 403.19,254.92 405.86,265.82 		"/>
		<path class="st11" d="M484.19,227.33l2.98-9.06l20.41-2.86l29.83-30.89l15.39-6.27l6.92,0.34c0,0,12.01,8.96,2.92,23.47
			c-9.09,14.51-18.29,21.19-18.29,21.19l-51.94,7.54L484.19,227.33z"/>
		<path class="st10" d="M488.62,220.84c0,0,20.24-0.39,28.03-8.9c0,0,17.59-23.83,43.94-32.71c0,0-21.46-18.1-45.25,16.91
			c0,0-8.68,16.63-27,17.98"/>
		<path class="st10" d="M485.04,226.16c0,0,51.01,7.03,81.03-36.9c0,0,5.38,20.85-20.96,35.69c0,0-41.71,17.55-62.83,6.33"/>
		<g>
			<path class="st11" d="M478.7,104.38c3.54-4.02,2.12-11.03,2.12-11.03c-4.47,4.05-4.33,10.45-4.33,10.45L478.7,104.38z"/>
			<path class="st11" d="M477.84,104.34c2.85-4.54,9.98-5.16,9.98-5.16c-2.62,5.43-8.8,7.11-8.8,7.11L477.84,104.34z"/>
		</g>
		<path class="st10" d="M424.09,98.84c-58.18,17.4-18.65,162.44-18.65,162.44s17.11,3.12,22.18-1.22
			c5.07-4.34,6.22-162.6,6.22-162.6C430.95,96.16,427.11,97.79,424.09,98.84z"/>
		<path class="st10" d="M473.75,102.6l0.95,0.96c1.62-0.04,22.88,12.84,23.63,42.23c-0.62-0.12,3.17,32.93-7.91,68.92
			c-0.11,0.35-0.19,0.7-0.28,1.06c-1.38,5.1-3.31,10.33-5.18,15.66c-3.16,9.04-7.07,18.35-11.91,27.69c0,0-7.24,0.77-11.03,1.64"/>
		<path class="st9" d="M453.24,96.14c3.24,28.84-5.85,163.13-5.85,163.13c-9.51,3.72-19.93,1.02-19.93,1.02
			S408.22,143.03,430.9,97.4C430.9,97.4,447.61,93.27,453.24,96.14"/>
		<path class="st11" d="M462.01,260.64c26.58-136.53,11.78-157.66,11.78-157.66s-8.36-6.66-20.55-6.84c0,0-10.91,162.69-5.09,164.63
			C451.44,261.86,462.01,260.64,462.01,260.64z"/>
		<g>
			<path class="st11" d="M436.84,94.94c-0.7-5.31-6.92-8.85-6.92-8.85c0.11,6.03,5.03,10.13,5.03,10.13L436.84,94.94z"/>
			<path class="st11" d="M436.24,95.56c-1.55-5.13,2.68-10.91,2.68-10.91c2.37,5.54-0.43,11.31-0.43,11.31L436.24,95.56z"/>
		</g>
		<g>
			<path class="st11" d="M459.62,95.15c1.36-5.18-3.06-10.81-3.06-10.81c-2.17,5.63,0.83,11.28,0.83,11.28L459.62,95.15z"/>
			<path class="st11" d="M458.82,95.5c0.51-5.34,6.6-9.09,6.6-9.09c0.1,6.03-4.67,10.31-4.67,10.31L458.82,95.5z"/>
		</g>
		<g>
			<path class="st11" d="M418.34,98.75c-2.38-4.8-9.42-6.13-9.42-6.13c2.06,5.67,8.05,7.95,8.05,7.95L418.34,98.75z"/>
			<path class="st11" d="M417.98,99.54c-3.13-4.35-1.01-11.19-1.01-11.19c4.04,4.48,3.26,10.83,3.26,10.83L417.98,99.54z"/>
		</g>
		<g>
			<path class="st11" d="M492.17,121.19c4.44-3.01,4.81-10.15,4.81-10.15c-5.34,2.8-6.8,9.04-6.8,9.04L492.17,121.19z"/>
			<path class="st11" d="M491.35,120.93c3.9-3.68,10.95-2.5,10.95-2.5c-3.89,4.61-10.3,4.68-10.3,4.68L491.35,120.93z"/>
		</g>
		<g>
			<path class="st11" d="M498.38,141.79c5.15-1.5,7.7-8.19,7.7-8.19c-5.94,1.03-9.25,6.51-9.25,6.51L498.38,141.79z"/>
			<path class="st11" d="M497.67,141.29c4.84-2.31,11.19,0.99,11.19,0.99c-5.12,3.19-11.24,1.3-11.24,1.3L497.67,141.29z"/>
		</g>
		<g>
			<path class="st11" d="M499.55,170.82c5.36,0.07,9.75-5.58,9.75-5.58c-5.98-0.75-10.75,3.53-10.75,3.53L499.55,170.82z"/>
			<path class="st11" d="M499.02,170.13c5.3-0.8,10.42,4.21,10.42,4.21c-5.83,1.55-11.13-2.04-11.13-2.04L499.02,170.13z"/>
		</g>
		<g>
			<path class="st11" d="M495.85,199.92c5.33,0.56,10.22-4.66,10.22-4.66c-5.89-1.3-11.03,2.52-11.03,2.52L495.85,199.92z"/>
			<path class="st11" d="M495.39,199.19c5.35-0.3,9.98,5.16,9.98,5.16c-5.95,1.01-10.89-3.06-10.89-3.06L495.39,199.19z"/>
		</g>
		<g>
			<path class="st11" d="M500.29,235.74c-0.23,3.85,3.68,7.2,3.68,7.2c0.75-4.27-2.17-7.85-2.17-7.85L500.29,235.74z"/>
			<path class="st11" d="M500.8,235.38c0.39,3.84-3.39,7.34-3.39,7.34c-0.92-4.24,1.85-7.93,1.85-7.93L500.8,235.38z"/>
		</g>
		<g>
			<path class="st11" d="M390.6,176.99c-5.36,0.02-9.65,5.75-9.65,5.75c6,0.65,10.69-3.72,10.69-3.72L390.6,176.99z"/>
			<path class="st11" d="M391.14,177.67c-5.29,0.89-10.49-4.03-10.49-4.03c5.8-1.66,11.16,1.85,11.16,1.85L391.14,177.67z"/>
		</g>
		<g>
			<path class="st11" d="M392.45,206.33c-5.29,0.84-8.66,7.16-8.66,7.16c6.02-0.28,9.99-5.31,9.99-5.31L392.45,206.33z"/>
			<path class="st11" d="M393.09,206.92c-5.09,1.69-10.98-2.38-10.98-2.38c5.48-2.52,11.31,0.12,11.31,0.12L393.09,206.92z"/>
		</g>
		<g>
			<path class="st11" d="M396.46,230.5c-5.2,1.3-8.01,7.88-8.01,7.88c5.98-0.8,9.5-6.15,9.5-6.15L396.46,230.5z"/>
			<path class="st11" d="M397.14,231.03c-4.92,2.12-11.14-1.42-11.14-1.42c5.24-2.99,11.28-0.86,11.28-0.86L397.14,231.03z"/>
		</g>
		<g>
			<path class="st11" d="M403.55,112.52c-4.55-2.84-11.23-0.28-11.23-0.28c4.73,3.74,11.02,2.55,11.02,2.55L403.55,112.52z"/>
			<path class="st11" d="M403.65,113.38c-4.94-2.07-6.73-9-6.73-9c5.79,1.69,8.46,7.51,8.46,7.51L403.65,113.38z"/>
		</g>
		<g>
			<path class="st11" d="M522.02,233.04c0.71,3.79,5.32,6.08,5.32,6.08c-0.32-4.33-4.02-7.08-4.02-7.08L522.02,233.04z"/>
			<path class="st11" d="M522.43,232.57c1.31,3.63-1.49,7.94-1.49,7.94c-1.92-3.89-0.14-8.14-0.14-8.14L522.43,232.57z"/>
		</g>
		<g>
			<path class="st11" d="M539.56,227.62c1.25,3.65,6.14,5.26,6.14,5.26c-0.93-4.24-4.98-6.43-4.98-6.43L539.56,227.62z"/>
			<path class="st11" d="M539.9,227.09c1.82,3.4-0.34,8.08-0.34,8.08c-2.46-3.58-1.3-8.03-1.3-8.03L539.9,227.09z"/>
		</g>
		<g>
			<path class="st11" d="M555.9,217.76c2.97,2.46,7.98,1.29,7.98,1.29c-3.01-3.13-7.61-2.89-7.61-2.89L555.9,217.76z"/>
			<path class="st11" d="M555.92,217.14c3.32,1.95,3.92,7.07,3.92,7.07c-3.96-1.77-5.3-6.18-5.3-6.18L555.92,217.14z"/>
		</g>
		<g>
			<path class="st11" d="M521.32,186.24c-2.66-2.79-7.78-2.21-7.78-2.21c2.62,3.46,7.22,3.76,7.22,3.76L521.32,186.24z"/>
			<path class="st11" d="M521.23,186.86c-3.07-2.33-3.07-7.48-3.07-7.48c3.73,2.22,4.54,6.75,4.54,6.75L521.23,186.86z"/>
		</g>
		<g>
			<path class="st11" d="M540.32,175.24c-0.42-3.83-4.84-6.48-4.84-6.48c-0.01,4.34,3.46,7.37,3.46,7.37L540.32,175.24z"/>
			<path class="st11" d="M539.87,175.68c-1.03-3.72,2.1-7.81,2.1-7.81c1.62,4.03-0.49,8.12-0.49,8.12L539.87,175.68z"/>
		</g>
		<g>
			<path class="st11" d="M562.84,180.77c2.9-2.54,2.54-7.67,2.54-7.67c-3.57,2.47-4.07,7.05-4.07,7.05L562.84,180.77z"/>
			<path class="st11" d="M562.23,180.66c2.46-2.97,7.6-2.74,7.6-2.74c-2.38,3.63-6.94,4.25-6.94,4.25L562.23,180.66z"/>
		</g>
		<g>
			<path class="st11" d="M566.78,198.9c3.79,0.72,7.61-2.74,7.61-2.74c-4.15-1.28-8.06,1.16-8.06,1.16L566.78,198.9z"/>
			<path class="st11" d="M566.49,198.35c3.85,0.1,6.85,4.28,6.85,4.28c-4.32,0.37-7.63-2.84-7.63-2.84L566.49,198.35z"/>
		</g>
		<g>
			<path class="st11" d="M446.25,95.75c18.85,0,44.97,7.85,51.19,49.38c0,0,3.9,31.39-7.39,70.75l0.07-0.23
				c0,0,14.57-1.05,24.32-17.07c0,0,11.86-20.86,28.86-22.35c0,0,1.72-0.32,4.18-0.32c5.3,0,14.04,1.5,16.61,10.94
				c0,0,8.14,23.14-21.05,37.67c0,0-21.36,9.15-42.34,9.15c-5.43,0-10.84-0.61-15.85-2.16l0.07-0.21
				c-2.88,7.62-8.27,19.46-13.04,28.43c-0.8,1.5-1.58,2.92-1.97,7.14l-63.2,0.7c0,0-0.63-3.9-1.1-5.72
				c-3.05-11.84-14.37-58.94-12.89-99.74l0.86-12.08c2.75-25.17,11.69-46,32.43-51.39C426.02,98.65,434.79,95.75,446.25,95.75
				 M446.25,94.75C446.25,94.75,446.25,94.75,446.25,94.75c-11.25,0-19.83,2.72-20.51,2.94c-18.74,4.89-29.89,22.46-33.14,52.24
				l-0.86,12.12c-1.47,40.55,9.51,86.84,12.92,100.06c0.45,1.76,1.08,5.59,1.08,5.63c0.08,0.48,0.5,0.84,0.99,0.84
				c0,0,0.01,0,0.01,0l63.2-0.7c0.51-0.01,0.94-0.4,0.98-0.91c0.36-3.97,1.07-5.3,1.82-6.71l0.03-0.06
				c4.41-8.31,9.63-19.63,12.68-27.46c4.52,1.29,9.65,1.94,15.25,1.94c20.95,0,42.52-9.14,42.74-9.24c0.02-0.01,0.03-0.02,0.05-0.02
				c15.43-7.69,20.48-17.83,22-24.98c1.6-7.55-0.25-13.33-0.44-13.89c-2.77-10.13-12.19-11.65-17.57-11.65c-2.32,0-4,0.28-4.31,0.33
				c-17.3,1.55-29.1,21.98-29.6,22.84c-7.57,12.44-18.24,15.59-22.08,16.35c10.63-38.3,6.98-69.11,6.94-69.42
				c-2.82-18.82-9.97-32.59-21.26-40.94C468.83,97.89,458.42,94.75,446.25,94.75L446.25,94.75z"/>
		</g>
		<path class="st12" d="M402.58,130.55c0,0,8.57-21.35,25.52-27.13"/>
		<path class="st12" d="M433.81,101.58c0,0,3.43-1.17,6.24-0.67"/>
		<path class="st12" d="M528.94,188.81c0,0,8.54-9.62,19.59-8.04"/>
		<path class="st11" d="M392.33,159.71l0.78-7.04l-11.23-8.5l-10.65-30.09l-8.48-8.98l-4.78-1.9c0,0-10.89,2.36-9.21,14.97
			c1.68,12.61,5.84,19.97,5.84,19.97l32.8,21.1L392.33,159.71z"/>
		<path class="st10" d="M393.34,153.67c0,0-13.88-6.5-16.53-14.66c0,0-4.55-21.54-19.63-35.66c0,0,20.09-5.63,25.39,25.38
			c0,0,2.42,18.63,12.72,20.48"/>
		<path class="st10" d="M393.8,158.38c0,0-36.66-10.97-43.43-49.93c0,0-10.07,12.44,3.18,30.6c0,0,22.8,24.72,40.54,23.65"/>
		<path class="st13" d="M391.61,162.57c-17.36-1.19-36.53-23.18-36.53-23.18c-15.25-18.83-2.62-31.97-2.62-31.97
			c6.81-8.2,17.33-0.77,17.33-0.77c11.04,6.25,12.63,24.01,12.63,24.01c1.39,13.18,9.52,16.16,10.27,16.41
			c0.04,0.01,0.05-0.17,0.05-0.17"/>
		<g>
			<path class="st11" d="M379.22,159.21c-1.38,3.6-6.33,5.03-6.33,5.03c1.09-4.2,5.22-6.24,5.22-6.24L379.22,159.21z"/>
			<path class="st11" d="M378.91,158.68c-1.94,3.33,0.04,8.08,0.04,8.08c2.59-3.48,1.6-7.98,1.6-7.98L378.91,158.68z"/>
		</g>
		<g>
			<path class="st11" d="M364.75,148.82c-2.22,3.15-7.37,3.33-7.37,3.33c2.09-3.8,6.59-4.78,6.59-4.78L364.75,148.82z"/>
			<path class="st11" d="M364.57,148.22c-2.7,2.75-1.94,7.85-1.94,7.85c3.36-2.74,3.5-7.35,3.5-7.35L364.57,148.22z"/>
		</g>
		<g>
			<path class="st11" d="M350.87,134.86c-3.35,1.91-8.08-0.13-8.08-0.13c3.51-2.55,8-1.52,8-1.52L350.87,134.86z"/>
			<path class="st11" d="M350.97,134.24c-3.61,1.34-5.1,6.27-5.1,6.27c4.21-1.05,6.3-5.16,6.3-5.16L350.97,134.24z"/>
		</g>
		<g>
			<path class="st11" d="M381.6,123.43c3.58-1.44,7.99,1.21,7.99,1.21c-3.82,2.06-8.13,0.42-8.13,0.42L381.6,123.43z"/>
			<path class="st11" d="M381.43,124.03c3.76-0.84,5.89-5.53,5.89-5.53c-4.31,0.47-6.94,4.26-6.94,4.26L381.43,124.03z"/>
		</g>
		<g>
			<path class="st11" d="M371.25,106.08c1.97-3.32,7.09-3.89,7.09-3.89c-1.79,3.95-6.2,5.27-6.2,5.27L371.25,106.08z"/>
			<path class="st11" d="M371.48,106.66c2.48-2.95,1.33-7.97,1.33-7.97c-3.14,2.99-2.93,7.6-2.93,7.6L371.48,106.66z"/>
		</g>
		<g>
			<path class="st11" d="M354.18,104.64c-1.59-3.51,0.87-8.04,0.87-8.04c2.22,3.73,0.77,8.1,0.77,8.1L354.18,104.64z"/>
			<path class="st11" d="M354.78,104.79c-1.01-3.72-5.78-5.65-5.78-5.65c0.66,4.29,4.56,6.75,4.56,6.75L354.78,104.79z"/>
		</g>
		<g>
			<path class="st11" d="M347.59,117.3c-3.75-0.92-5.78-5.65-5.78-5.65c4.3,0.56,6.85,4.4,6.85,4.4L347.59,117.3z"/>
			<path class="st11" d="M348.08,116.92c-3.55-1.51-8.01,1.06-8.01,1.06c3.78,2.13,8.12,0.58,8.12,0.58L348.08,116.92z"/>
		</g>
		<path class="st12" d="M373.31,117.59c0,0-2.07-6.73-7.94-8.46"/>
	</g>
</g>
<path class="st0" d="M119.48,575.53c0.05,1.09-0.14,2.01-0.57,2.75l-0.35,0.59l-0.21,0.66c-0.33,1.92-1.63,4-3.89,6.22l-6.23,6.09
	c-2.83,2.62-5.76,4.45-8.77,5.5c-1.04,0.39-2.48,1.05-4.32,1.97c-1.98,1-3.94,1.55-5.87,1.64l-1.42,0.2
	c-1.23,0.18-1.82,0.81-1.77,1.9l0.21,2.03c0.47,4.24,0.61,7.56,0.42,9.96v1.57l0.21,1.51c0.24,2.18,0.19,4.45-0.14,6.81
	c-0.24,1.35-0.24,2.93,0,4.72c0.38,2.97,0.31,5.55-0.21,7.73c-0.71,2.93-1.11,6.05-1.2,9.37c-0.14,4.28-1.84,8.15-5.09,11.6
	l-0.71,0.85l-0.71,0.79l-1.56,1.38c-0.61,0.44-1.23,0.74-1.84,0.92c-0.99,0.22-2.19,0.61-3.61,1.18l-3.47,1.44
	c-1.56,0.52-2.83,0.85-3.82,0.98c-1.84,0.17-2.97-0.61-3.4-2.36l-0.14-0.92l-0.07-0.92l-0.64-7.8c-0.28-2.58-0.47-5.5-0.57-8.78
	l-0.07-8.71l-0.14-11.79l-0.21-7.93c-0.05-3.1,0.02-5.76,0.21-7.99c0.05-1.09,0.02-2.4-0.07-3.93l-1.77-20.31l-0.14-4.98l-0.28-9.89
	l-0.14-0.79L57,567.99l-0.21-1.57l-0.07-1.57c0.19-5.28-0.47-10.9-1.98-16.84l-0.28-1.38l-0.35-1.44c-0.33-0.96-0.05-1.9,0.85-2.82
	c0.71-0.74,1.56-1.29,2.55-1.64l0.92-0.33l0.92-0.26c2.22-0.87,4.08-0.81,5.59,0.2c1.08,0.74,2.1,0.61,3.04-0.39l1.84-1.64
	c3.49-2.93,7.69-4.72,12.59-5.37c3.73-0.44,7.55-0.13,11.46,0.92l3.75,1.05c1.42,0.39,2.64,0.85,3.68,1.38
	c4.2,2.05,7.78,5.18,10.75,9.37c2.64,3.8,4.41,7.91,5.31,12.32c0.33,1.62,0.73,3.23,1.2,4.85c0.42,1.31,0.66,2.6,0.71,3.87
	L119.48,575.53z M109.64,567.08c0.47-3.76,0.35-6.68-0.35-8.78l-0.85-3.21c-0.38-1.27-0.76-2.29-1.13-3.08
	c-2.36-4.98-5.71-9-10.05-12.05c-3.82-2.79-7.64-3.91-11.46-3.34c-2.08,0.18-3.66,0.44-4.74,0.79c-2.22,0.66-4.76,2.49-7.64,5.5
	c-1.89,2.01-2.1,4.15-0.64,6.42c0.85,1.44,1.7,3.1,2.55,4.98l1.98,5.18c2.36,6.2,3.7,11.07,4.03,14.61l0.14,1.05
	c0.38,0.92,0.64,1.99,0.78,3.21l0.35,3.21l0.07,1.31l0.21,1.31c0.9,3.8,1.18,7.08,0.85,9.83l0.14,1.05
	c0.09,0.87,0.54,1.14,1.34,0.79l0.78-0.39c4.76-2.31,8.77-5.13,12.03-8.45c1.93-1.97,3.96-3.93,6.08-5.9
	c1.27-1.18,2.22-2.55,2.83-4.13C108.42,572.99,109.31,569.7,109.64,567.08z"/>
<path class="st0" d="M80.44,795.63l-0.01-1.9l-0.01-2.07c-0.01-2.42,0.06-4.49,0.21-6.22c0.36-3.77,0.63-8.8,0.79-15.07
	c0-1.3,0.16-2.28,0.5-2.94c0.31-0.61,0.72-1.07,1.23-1.39c0.51-0.32,1.08-0.48,1.7-0.48c0.59,0,1.18,0.13,1.77,0.4
	c0.59,0.27,1.14,0.68,1.64,1.23c1.31,1.35,3.41,3.24,6.31,5.68c2.06,1.72,3.58,3.04,4.58,3.96c0.59,0.54,1.06,0.93,1.4,1.16
	c0.34,0.23,0.67,0.34,0.98,0.34c0.31,0,0.65-0.12,1.02-0.37c0.37-0.25,0.84-0.64,1.4-1.19c2.26-2.22,5.5-5.01,9.72-8.36l1.63-1.34
	c1.15-0.9,2.17-1.34,3.07-1.35c0.72,0,1.31,0.29,1.77,0.88c0.47,0.59,0.78,1.44,0.94,2.57c0.63,4.14,0.99,7.66,1.06,10.53
	c0.2,5.41,0.53,9.67,0.97,12.78l0.05,0.35l0.05,1.12c0,0.63-0.11,1.16-0.32,1.58c-0.22,0.42-0.62,0.7-1.21,0.85
	c-0.28,0.09-0.54,0.13-0.79,0.13c-1.12,0-2.01-0.86-2.67-2.58c-0.69-1.67-1.13-3.4-1.32-5.2c-0.19-1.8-0.32-4.17-0.39-7.1
	c-0.08-3.86-0.3-6.91-0.68-9.15l-3.95,3.55l-4.37,3.9c-1.98,1.73-3.85,2.6-5.59,2.61c-1.71,0.01-3.53-0.78-5.46-2.36l-5.42-4.26
	l-5.28-4.17c-0.4,0.92-0.65,6.09-0.74,15.51l-0.12,5.36c-0.06,1.67-0.24,2.94-0.55,3.82c-0.31,0.88-0.99,1.32-2.05,1.32
	C81.06,797.74,80.44,797.04,80.44,795.63z"/>
<path class="st0" d="M129.05,797.98l0.04-0.69c0.39-2.91,1.26-5.4,2.59-7.48c1.05-1.7,2.04-3.42,2.97-5.17
	c0.93-1.74,2.05-3.94,3.38-6.6c1.36-2.74,2.53-5.03,3.52-6.88c0.74-1.41,1.53-2.12,2.37-2.12c0.72,0,1.51,0.47,2.38,1.42
	c0.19,0.26,1.13,1.99,2.81,5.19c1.69,3.2,3.39,6.62,5.12,10.24c1.72,3.62,2.99,6.61,3.81,8.97c0.25,0.58,0.38,1.15,0.38,1.73
	c0,0.86-0.31,1.43-0.93,1.69c-0.19,0.09-0.4,0.13-0.65,0.13c-0.93,0-1.94-0.63-3.01-1.89c-1.08-1.26-1.82-2.6-2.23-4.01
	c-0.31-1.09-0.83-1.84-1.55-2.24c-0.72-0.4-1.7-0.57-2.94-0.51c-1.43,0.06-2.52,0.09-3.26,0.1c-2.02,0.01-3.78-0.12-5.27-0.37
	c-0.16-0.03-0.36-0.04-0.61-0.04c-0.9,0-1.54,0.47-1.91,1.39l-0.42,1.12c-0.93,2.39-1.77,4.26-2.52,5.6
	c-0.76,1.34-1.6,2.01-2.54,2.02c-0.12,0-0.28-0.03-0.47-0.08C129.41,799.32,129.05,798.81,129.05,797.98z M147.57,784.84l-4.18-8.71
	c-0.15,0.29-0.32,0.62-0.49,0.99c-0.17,0.38-0.36,0.76-0.58,1.17c-0.96,2.08-2.02,4.27-3.2,6.57L147.57,784.84z"/>
<path class="st0" d="M188.56,796.2c-2.36,0.86-4.77,1.29-7.22,1.3c-3.02,0.01-5.82-0.6-8.42-1.83c-2.6-1.23-4.69-3.02-6.27-5.38
	c-1.58-2.35-2.37-5.16-2.38-8.41c0-1.06,0.12-2.32,0.36-3.76c0.76-4.18,2.57-7.4,5.43-9.67c2.85-2.27,6.46-3.41,10.81-3.42
	c0.56,0,1.49,0.05,2.8,0.16c1.83,0.17,3.52,0.42,5.06,0.76c1.54,0.34,3,0.85,4.37,1.54c4.33,2.2,6.5,5.25,6.51,9.14
	c0,0.72-0.29,1.15-0.88,1.3l-0.37,0.09c-0.41,0-0.74-0.17-1-0.52c-0.27-0.35-0.57-0.86-0.91-1.55c-0.22-0.49-0.42-0.88-0.61-1.16
	c-1.34-2.24-3.11-3.75-5.28-4.52c-2.74-0.94-5.45-1.41-8.12-1.4c-0.9,0-1.93,0.08-3.08,0.23c-3.51,0.47-6.23,2.18-8.14,5.12
	c-1.52,2.34-2.27,4.87-2.26,7.61c0,1.47,0.21,2.94,0.62,4.4c0.75,2.82,2.81,4.84,6.18,6.07c2.12,0.77,4.23,1.15,6.35,1.15
	c2.95-0.01,5.7-0.75,8.25-2.21c2.54-1.46,4.59-3.5,6.14-6.13c0.06-0.11,0.15-0.29,0.28-0.52c0.12-0.23,0.25-0.41,0.37-0.54
	c0.12-0.13,0.29-0.2,0.51-0.2c0.06,0,0.22,0.03,0.47,0.08c0.31,0.11,0.5,0.29,0.56,0.52c0.06,0.23,0.1,0.6,0.1,1.12
	c-0.12,2.51-1.38,4.78-3.8,6.83C193.04,794.08,190.92,795.34,188.56,796.2z"/>
<path class="st0" d="M205.61,796.77c-0.68-0.34-1.14-0.87-1.39-1.59c-0.24-0.72-0.37-1.84-0.37-3.37c-0.01-2.19,0.07-4.63,0.22-7.33
	l0.18-5.22c0-0.96,0.09-2.4,0.28-4.32c0.19-2.1,0.28-3.7,0.28-4.81c0-1.56-0.15-2.94-0.45-4.14c-0.03-0.12-0.05-0.3-0.05-0.54
	c0-0.45,0.15-0.79,0.46-1.04c0.31-0.24,0.77-0.45,1.38-0.63c1.46-0.48,3.17-0.73,5.15-0.74l1.55,0.04
	c4.27,0.14,8.82,0.32,13.63,0.56c4.81,0.24,7.46,0.42,7.94,0.54c0.55,0.12,1,0.33,1.36,0.65c0.36,0.31,0.54,0.71,0.54,1.19
	c-0.03,0.6-0.26,1.05-0.68,1.35c-0.42,0.3-0.97,0.47-1.65,0.5l-3.79,0.06c-2.2,0.01-4.05-0.08-5.54-0.25
	c-2.01-0.2-4.07-0.34-6.19-0.41c-2.12-0.07-4.57-0.1-7.36-0.09c-0.71,0-1.24,0.12-1.58,0.34c-0.34,0.23-0.51,0.61-0.51,1.15
	c0,0.24,0.02,0.43,0.05,0.58c0.23,1.32,0.41,3.28,0.55,5.89c0.03,0.72,0.19,1.24,0.47,1.57c0.28,0.33,0.74,0.49,1.38,0.49
	c0.32,0,0.58-0.02,0.78-0.05c2.23-0.31,4.55-0.46,6.94-0.47c2.62-0.01,5.52,0.13,8.7,0.42c0.32,0.03,0.61,0.04,0.85,0.02
	c0.24-0.02,0.44-0.02,0.61-0.02c0.58,0,1.04,0.09,1.36,0.29c0.32,0.19,0.5,0.56,0.54,1.1c0,0.6-0.21,1-0.63,1.19
	c-0.42,0.2-0.91,0.32-1.46,0.37c-0.55,0.05-0.97,0.09-1.26,0.12c-3.92,0.76-8.69,1.26-14.32,1.48c-1.3,0.03-2.15,0.1-2.57,0.21
	c-0.42,0.11-0.68,0.35-0.78,0.72c-0.1,0.38-0.16,1.13-0.19,2.27l0.01,4.72c-0.03,1.05,0,1.74,0.08,2.07
	c0.08,0.33,0.32,0.54,0.71,0.63c0.39,0.09,1.18,0.12,2.38,0.08c2.72-0.1,6.41-0.16,11.07-0.17c3.43-0.01,5.52,0.04,6.27,0.16
	c0.91,0.15,1.58,0.27,2.02,0.38c0.44,0.1,0.83,0.31,1.19,0.63c0.36,0.31,0.54,0.77,0.54,1.37c0,0.81-0.28,1.37-0.84,1.67
	c-0.57,0.3-1.16,0.51-1.8,0.61c-0.63,0.11-1.04,0.18-1.24,0.21c-0.81,0.18-2.52,0.32-5.15,0.42c-2.62,0.1-5.39,0.15-8.3,0.16
	c-4.4,0.01-7.11-0.05-8.11-0.2C207.38,797.39,206.29,797.11,205.61,796.77z"/>
</svg>
